<?xml version="1.0" encoding="UTF-8"?>
<svg xmlns="http://www.w3.org/2000/svg" xmlns:xlink="http://www.w3.org/1999/xlink" width="338px" height="41px" viewBox="0 0 338 41">
  <!-- Generator: sketchtool 60 (101010) - https://sketch.com -->
  <title>43DFE15B-13F3-4F48-ABB5-E6E61686146D</title>
  <desc>Created with sketchtool.</desc>
  <g id="Page-1" stroke="none" stroke-width="1" fill="none" fill-rule="evenodd">
    <g id="Home-Page" transform="translate(-145.000000, -26.000000)">
      <g id="logo" transform="translate(145.000000, 26.000000)">
        <path d="M32.9947917,16.6949457 L32.9947917,4.46807608 L16.96875,0 L16.96875,19.8561536 L27.2788766,22.7347955 C26.4876084,26.0866176 24.7304419,29.1410195 22.2192774,31.5296647 L22.2192774,23.547173 L16.96875,22.0813615 L16.96875,40.5364583 C26.4497404,37.470091 32.8942491,28.7814518 32.9888252,18.9378139 L22.24911,15.9355493 L22.24911,6.85222735 L27.7681303,8.38868038 L27.7681303,15.2291341 L32.9947917,16.6949457 Z" id="Path" fill="#EF6053"></path>
        <path d="M10.7695477,31.5205097 C7.25311952,28.1808743 5.26144881,23.5765332 5.25052743,18.7616477 L5.25052743,8.38624465 L10.7695477,6.85023773 L10.7695477,31.5205097 Z M16.0260417,0 L0,4.46677873 L0,18.7616477 C0.0160752567,28.6713057 6.47840748,37.4517684 16.0260417,40.5364583 L16.0260417,0 Z" id="Shape" fill="#EF6053"></path>
        <path d="M52.2426231,10 C55.8160759,10 58.6716476,10.9971223 60.8093381,12.9913669 C62.9470287,14.9856115 64.0105563,17.676259 64,21.0633094 C64,24.4503597 62.9363934,27.1199041 60.8093381,29.0719424 C58.6822829,31.0239808 55.8267112,32 52.2426231,32 L45,32 L45,10 L52.2426231,10 Z M49,29 L52.7150685,29 C55.3671233,29 57.4109589,28.2868217 58.8465753,26.8604651 C60.2821918,25.4341085 61,23.4754522 61,20.9844961 C61,18.4935401 60.2821918,16.5400517 58.8465753,15.124031 C57.4109589,13.7080103 55.3671233,13 52.7150685,13 L49,13 L49,29 Z" id="Shape" fill="#FFFFFF" fill-rule="nonzero"></path>
        <path d="M75.4566112,31.9941447 C73.1666603,32.0810506 70.9470898,31.1972625 69.3490587,29.5622405 C67.7830196,27.9409711 67,25.7896714 67,23.1083412 C67,20.427011 67.7934598,18.2809076 69.3803794,16.6700309 C71.7769304,14.1150404 75.5115819,13.3026942 78.7602783,14.6297536 C82.0089746,15.956813 84.0938986,19.1463965 83.9967444,22.6406673 C83.9997058,23.2042885 83.9578137,23.7672578 83.8714613,24.3242932 L70.6645315,24.3242932 C70.6885199,25.6110359 71.2190033,26.8369781 72.1418284,27.7383125 C73.0405047,28.5844857 74.2410705,29.0389613 75.4774917,29.0010319 C77.4193802,29.0010319 78.7870543,28.20079 79.5805142,26.6003061 L83.4329704,26.6003061 C82.9230843,28.1636742 81.9243949,29.5237956 80.5827792,30.4819992 C79.0856383,31.5294555 77.2853274,32.0605212 75.4566112,31.9941447 L75.4566112,31.9941447 Z M79.527161,18.3381318 C78.5746701,17.4442821 77.3212709,16.9652099 76.0313517,17.0019693 C74.7520078,16.9651895 73.5112826,17.4542098 72.5845491,18.3604944 C71.6313022,19.3272755 71.0658841,20.6259681 71,22 L80.9973612,22 C81.042494,20.6191951 80.5069032,19.2851842 79.527161,18.3381318 L79.527161,18.3381318 Z" id="Shape" fill="#FFFFFF" fill-rule="nonzero"></path>
        <polygon id="Path" fill="#FFFFFF" fill-rule="nonzero" points="86.25 14.7135417 90.1890135 14.7135417 95.2257848 28.5665362 100.262556 14.7135417 104.25 14.7135417 97.4535874 31.7135417 92.9979821 31.7135417"></polygon>
        <path d="M114.456611,31.9941447 C112.16666,32.0810506 109.94709,31.1972625 108.349059,29.5622405 C106.78302,27.9409711 106,25.7896714 106,23.1083412 C106,20.427011 106.79346,18.2809076 108.380379,16.6700309 C110.77693,14.1150404 114.511582,13.3026942 117.760278,14.6297536 C121.008975,15.956813 123.093899,19.1463965 122.996744,22.6406673 C122.999706,23.2042885 122.957814,23.7672578 122.871461,24.3242932 L109.664532,24.3242932 C109.682985,25.6080696 110.205792,26.8335946 111.120948,27.7383125 C112.019624,28.5844857 113.22019,29.0389613 114.456611,29.0010319 C116.3985,29.0010319 117.766174,28.20079 118.559634,26.6003061 L122.41209,26.6003061 C121.902204,28.1636742 120.903514,29.5237956 119.561899,30.4819992 C118.070517,31.5251032 116.278259,32.055956 114.456611,31.9941447 Z M118.527161,18.3381318 C117.57467,17.4442821 116.321271,16.9652099 115.031352,17.0019693 C113.752008,16.9651895 112.511283,17.4542098 111.584549,18.3604944 C110.631302,19.3272755 110.065884,20.6259681 110,22 L119.997361,22 C120.042494,20.6191951 119.506903,19.2851842 118.527161,18.3381318 L118.527161,18.3381318 Z" id="Shape" fill="#FFFFFF" fill-rule="nonzero"></path>
        <polygon id="Path" fill="#FFFFFF" fill-rule="nonzero" points="127.25 31.7135417 127.25 7.71354167 130.25 7.71354167 130.25 31.7135417"></polygon>
        <path d="M142.852656,31.9953764 C140.477575,32.0728496 138.176329,31.1738676 136.497313,29.5126616 C134.832438,27.8575184 134,25.6858019 134,22.997512 C134,20.3092221 134.859118,18.1375055 136.577355,16.4823623 C140.201113,13.1725459 145.79235,13.1725459 149.416107,16.4823623 C151.134344,18.1375055 151.993463,20.3039509 151.993463,22.9816985 C152.089241,25.4253515 151.128928,27.7940241 149.352074,29.4968482 C147.611163,31.154976 145.270245,32.0548796 142.852656,31.9953764 L142.852656,31.9953764 Z M147.331648,27.39631 C148.443883,26.3382696 149,24.8675934 149,22.9842814 C149,21.1009694 148.460566,19.6355834 147.381699,18.5881234 C146.366161,17.5601056 144.943929,16.9843896 143.461072,17.0010627 C141.983681,16.9717459 140.564824,17.5501983 139.568251,18.5881234 C138.52275,19.6461638 138,21.11684 138,23.000152 C138,24.883464 138.511628,26.3541402 139.534884,27.4121806 C140.505162,28.4445709 141.899876,29.0239399 143.35541,28.9992413 C144.857236,29.0130249 146.297524,28.4324052 147.331648,27.39631 L147.331648,27.39631 Z" id="Shape" fill="#FFFFFF" fill-rule="nonzero"></path>
        <path d="M165.742686,14.0021379 C167.973592,13.9490068 170.11877,14.8883326 171.630772,16.5804009 C173.202345,18.2992429 173.989901,20.5326427 173.99344,23.2806002 C174.084163,25.7689986 173.230956,28.1959338 171.614844,30.0464878 C170.124365,31.767499 167.980142,32.7329398 165.742686,32.690439 C164.462654,32.7198784 163.20102,32.3723763 162.10577,31.6886935 C161.075102,31.026075 160.223933,30.1051964 159.631606,29.0118982 L159.631606,41 L156,41 L156,14.2977349 L159.631606,14.2977349 L159.631606,17.5164581 C160.228157,16.4690409 161.076672,15.5979819 162.095152,14.9874613 C163.199911,14.3192749 164.46207,13.9783226 165.742686,14.0021379 Z M169.358129,27.3132823 C170.478377,26.1173653 171.067227,24.5271037 170.992918,22.8983282 C171.07235,21.2993311 170.480806,19.7388531 169.358129,18.5857966 C168.337221,17.5654089 166.944434,16.9939648 165.493166,17 C164.041898,17.0061314 162.654056,17.589231 161.641926,18.6181406 C160.517956,19.7922345 159.927438,21.3694785 160.007137,22.9845788 C159.929919,24.6041282 160.519779,26.1854478 161.641926,27.367189 C162.645513,28.415158 164.042402,29.0060782 165.501651,29 C166.9609,28.9938275 168.35267,28.3912015 169.347231,27.334845 L169.358129,27.3132823 Z" id="Shape" fill="#FFFFFF" fill-rule="nonzero"></path>
        <path d="M185.477492,31.9933557 C183.180374,32.0862263 180.952023,31.2020039 179.349059,29.5615583 C177.78302,27.9403599 177,25.7891545 177,23.1079418 C177,20.4267292 177.79346,18.2807199 179.380379,16.6699139 C181.77693,14.1150353 185.511582,13.3027247 188.760278,14.629726 C192.008975,15.9567272 194.093899,19.1461709 193.996744,22.6402885 C193.999706,23.203885 193.957814,23.7668295 193.871461,24.3238406 L180.685412,24.3238406 C180.703865,25.6075607 181.226673,26.8330319 182.141828,27.7377101 C183.040505,28.5838462 184.24107,29.038302 185.477492,29.0003742 C187.41938,29.0003742 188.787054,28.2001674 189.580514,26.5997536 L193.443411,26.5997536 C192.933525,28.1630533 191.934835,29.523115 190.593219,30.4812765 C189.098958,31.5265085 187.302674,32.0574443 185.477492,31.9933557 Z M189.518159,18.3381318 C188.566674,17.4442821 187.314598,16.9652099 186.02604,17.0019693 C184.748047,16.9651895 183.508632,17.4542098 182.582876,18.3604944 C181.630636,19.3272755 181.065815,20.6259681 181,22 L190.997686,22 C191.039974,20.6174642 190.500877,19.2831845 189.518159,18.3381318 L189.518159,18.3381318 Z" id="Shape" fill="#FFFFFF" fill-rule="nonzero"></path>
        <path d="M201.927419,14.0028274 L201.927419,17.0885417 C203.067204,14.8385417 204.841398,13.7135417 207.25,13.7135417 L207.25,17.5063988 L206.314516,17.5063988 C204.880824,17.5063988 203.789427,17.8635417 203.040323,18.5778274 C202.291219,19.2921131 201.920251,20.5563988 201.927419,22.3706845 L201.927419,31.7135417 L198.25,31.7135417 L198.25,14.0028274 L201.927419,14.0028274 Z" id="Path" fill="#FFFFFF" fill-rule="nonzero"></path>
        <path d="M210.252906,19.0031252 C210.251216,17.5301609 210.954153,16.1421528 212.150723,15.2557235 C213.576178,14.181487 215.342474,13.6381329 217.136515,13.7219769 C219.195164,13.7219769 220.830289,14.2226845 222.04189,15.2240999 C223.264124,16.2470212 223.974239,17.741371 223.987957,19.3193616 L220.235211,19.3193616 C220.209805,18.55389 219.876195,17.8296784 219.307747,17.3059897 C218.665901,16.7863398 217.848776,16.5229505 217.018571,16.5681047 C216.194219,16.5204809 215.377794,16.749013 214.702591,17.2163894 C214.159735,17.6194895 213.848262,18.2554801 213.866264,18.9240661 C213.8688,19.6342529 214.285799,20.2799441 214.938477,20.5843073 C215.745341,21.0193648 216.620553,21.3186496 217.527873,21.4697693 C218.546475,21.6595112 219.565078,21.8914179 220.58368,22.1654895 C221.571301,22.4216107 222.467528,22.941517 223.173075,23.6676125 C223.911823,24.4637635 224.297652,25.5163739 224.245289,26.5927995 C224.264331,28.0650206 223.534158,29.449309 222.299222,30.2822245 C220.834763,31.2809095 219.077979,31.7807253 217.297347,31.7052884 C215.52621,31.7859786 213.779682,31.2730911 212.343721,30.2506008 C211.057605,29.241885 210.291999,27.7249306 210.252906,26.1079036 L214.04854,26.1079036 C214.070319,26.8850256 214.419905,27.6182259 215.013532,28.1318168 C215.686255,28.6472866 216.526161,28.9056797 217.377763,28.8591606 C218.22175,28.9028731 219.057277,28.6753153 219.758076,28.2108759 C220.327551,27.8179642 220.659518,27.1711672 220.642652,26.4873873 C220.643705,25.7722298 220.226555,25.1201519 219.570439,24.8113343 C218.762543,24.3752608 217.88806,24.0708851 216.981044,23.9100605 C215.962441,23.7097774 214.943839,23.4778707 213.925236,23.2143403 C212.945998,22.9728528 212.051333,22.475705 211.335841,21.7754646 C210.603553,21.0363771 210.212048,20.0341144 210.252906,19.0031252 Z" id="Path" fill="#FFFFFF" fill-rule="nonzero"></path>
        <path d="M244.416696,12.6005517 C243.48872,12.5569336 242.575089,12.8419763 241.836556,13.4055264 C241.164421,13.989407 240.805241,14.8548449 240.866423,15.7430492 C240.821184,16.6747007 241.26772,17.5618658 242.042967,18.080572 C242.906927,18.6427868 243.870186,19.0350816 244.881121,19.2364332 C245.995741,19.4841177 247.110362,19.7679229 248.224982,20.0878488 C249.324461,20.3982984 250.312596,21.0158609 251.073456,21.8680814 C251.857819,22.7349773 252.25,23.9630798 252.25,25.5523889 C252.22422,27.1995686 251.491066,28.756056 250.237491,29.8249471 C248.895818,31.0840101 247.100041,31.7135417 244.850159,31.7135417 C242.600277,31.7135417 240.773538,31.1940922 239.369942,30.1551931 C237.981999,29.1429167 237.188831,27.5063413 237.254228,25.7897532 L241.031552,25.7897532 C241.067699,26.6488737 241.438038,27.4598873 242.063608,28.0498746 C242.836034,28.6580657 243.807616,28.9561539 244.788236,28.8858099 C245.81577,28.9434511 246.827297,28.6118148 247.621229,27.9569929 C248.824051,26.8814902 248.999212,25.062574 248.023731,23.7773163 C247.576889,23.2870382 247.011964,22.9193174 246.382762,22.7091768 C245.65738,22.4561057 244.918283,22.2442044 244.169002,22.0744852 C243.363999,21.8887218 242.553835,21.6719978 241.738511,21.4243133 C240.960429,21.1927267 240.212228,20.870596 239.50927,20.4645357 C238.817237,20.0503347 238.250203,19.4565754 237.868301,18.7462242 C237.428332,17.8908807 237.216806,16.9363837 237.254228,15.9752535 C237.206292,14.2260126 237.967897,12.552445 239.318339,11.4395304 C240.806519,10.2476682 242.677034,9.63702213 244.581825,9.72121897 C246.738821,9.72121897 248.458915,10.216588 249.742104,11.2073262 C251.061997,12.2518448 251.850231,13.8282576 251.893941,15.510845 L247.992769,15.510845 C247.927603,14.7155464 247.557875,13.9761179 246.960713,13.4468072 C246.252675,12.8488172 245.341867,12.5458414 244.416696,12.6005517 Z" id="Path" fill="#FFFFFF" fill-rule="nonzero"></path>
        <path d="M266.20913,17.0681928 L261.538217,17.0681928 L261.538217,26.8210998 C261.483236,27.3392759 261.66731,27.8549266 262.046178,28.2440649 C262.551417,28.5808252 263.175503,28.7346334 263.797771,28.675751 L266.25,28.675751 L266.25,31.7135417 L263.097134,31.7135417 C259.383758,31.7135417 257.52707,30.0827277 257.52707,26.8210998 L257.52707,17.0681928 L255.25,17.0681928 L255.25,14.0943556 L257.52707,14.0943556 L257.52707,9.71354167 L261.555732,9.71354167 L261.555732,14.0943556 L266.226645,14.0943556 L266.20913,17.0681928 Z" id="Path" fill="#FFFFFF" fill-rule="nonzero"></path>
        <path d="M282.404762,13.7135417 L286.25,13.7135417 L286.25,31.4526715 L282.404762,31.4526715 L282.404762,28.6517563 C281.190476,30.6907368 279.21164,31.710227 276.468254,31.710227 C274.528547,31.7687187 272.651474,31.0509074 271.290675,29.7302696 C269.930225,28.4102981 269.25,26.5591185 269.25,24.1767308 L269.25,13.7135417 L273.083995,13.7135417 L273.083995,23.6294255 C273.083995,25.217684 273.5,26.4357065 274.332011,27.2834931 C275.223474,28.1548073 276.464507,28.6180636 277.738757,28.555173 C279.012445,28.6053912 280.248625,28.1373328 281.139881,27.2673959 C281.983135,26.4196093 282.404762,25.2015868 282.404762,23.6133283 L282.404762,13.7135417 Z" id="Path" fill="#FFFFFF" fill-rule="nonzero"></path>
        <path d="M291.391008,29.4191292 C289.770475,27.6178923 288.914565,25.2484768 289.006743,22.8187692 C289.006743,20.1380405 289.796199,17.9592809 291.375113,16.2824905 C292.89295,14.6319491 295.039902,13.7162452 297.272197,13.7673048 C298.549995,13.7454521 299.809176,14.0779669 300.912175,14.7285222 C301.927234,15.3238789 302.766654,16.1809685 303.344126,17.2116674 L303.344126,8 L307,8 L307,31.7100308 L303.344126,31.7100308 L303.344126,28.4098508 C302.768224,29.4806448 301.924321,30.3809021 300.89628,31.0211583 C299.804945,31.687407 298.547821,32.0263917 297.272197,31.998396 C295.033435,32.0389708 292.887494,31.0978421 291.391008,29.4191292 L291.391008,29.4191292 Z M302.353131,27.3849768 C303.478656,26.2011728 304.070292,24.617093 303.992841,22.9947165 C304.07278,21.376797 303.480484,19.7967998 302.353131,18.6206564 C301.344379,17.5904824 299.957497,17.0061476 298.506721,17 C297.055944,16.9939488 295.664079,17.5666011 294.64649,18.588256 C293.522115,19.7443729 292.929073,21.3068307 293.006779,22.9083153 C292.933478,24.5397461 293.523932,26.132329 294.64649,27.330976 C295.639338,28.3894857 297.032024,28.9938118 298.492692,29 C299.95336,29.0060937 301.351201,28.4134996 302.353131,27.3633765 L302.353131,27.3849768 Z" id="Shape" fill="#FFFFFF" fill-rule="nonzero"></path>
        <path d="M316,9.5 C316,10.8807119 315.104569,12 314,12 C312.895431,12 312,10.8807119 312,9.5 C312,8.11928813 312.895431,7 314,7 C315.104569,7 316,8.11928813 316,9.5 L316,9.5 Z M313,32 L313,14 L316,14 L316,32 L313,32 Z" id="Shape" fill="#FFFFFF" fill-rule="nonzero"></path>
        <path d="M328.853112,31.9953764 C326.477909,32.0728496 324.176544,31.1738676 322.497442,29.5126616 C320.832481,27.8575184 320,25.6858019 320,22.997512 C320,20.3092221 320.859163,18.1375055 322.577488,16.4823623 C326.201433,13.1725459 331.792958,13.1725459 335.416903,16.4823623 C337.135229,18.1375055 337.994391,20.3039509 337.994391,22.9816985 C338.083246,25.429365 337.112934,27.798643 335.326184,29.4968482 C333.591743,31.1484063 331.261654,32.047793 328.853112,31.9953764 L328.853112,31.9953764 Z M333.32742,27.39631 C334.442473,26.3382696 335,24.8675934 335,22.9842814 C335,21.1009694 334.459199,19.6355834 333.377598,18.5881234 C332.366879,17.5658246 330.952134,16.9905063 329.474911,17.0010627 C327.993776,16.9717459 326.571324,17.5501983 325.572225,18.5881234 C324.524075,19.6461638 324,21.11684 324,23.000152 C324,24.883464 324.512924,26.3541402 325.538773,27.4121806 C326.511511,28.4445709 327.909759,29.0239399 329.368981,28.9992413 C330.865081,29.0063221 332.297703,28.4261959 333.32742,27.39631 L333.32742,27.39631 Z" id="Shape" fill="#FFFFFF" fill-rule="nonzero"></path>
      </g>
    </g>
  </g>
</svg>
